<?xml version="1.0" standalone="no"?>
<!DOCTYPE svg PUBLIC "-//W3C//DTD SVG 20010904//EN"
 "http://www.w3.org/TR/2001/REC-SVG-20010904/DTD/svg10.dtd">
<svg version="1.0" xmlns="http://www.w3.org/2000/svg"
 width="500.000000pt" height="500.000000pt" viewBox="0 0 500.000000 500.000000"
 preserveAspectRatio="xMidYMid meet">

<g transform="translate(0.000000,500.000000) scale(0.100000,-0.100000)"
fill="#000000" stroke="none">
<path d="M3829 3964 c-3 -5 -5 -306 -5 -668 1 -517 4 -660 14 -664 17 -5 17
-218 -1 -229 -10 -6 -13 -138 -12 -650 l0 -643 63 63 c289 284 485 677 546
1098 21 141 21 406 0 546 -50 340 -185 657 -389 918 -85 108 -210 241 -216
229z"/>
</g>
</svg>
