<?xml version="1.0" standalone="no"?>
<!DOCTYPE svg PUBLIC "-//W3C//DTD SVG 20010904//EN"
 "http://www.w3.org/TR/2001/REC-SVG-20010904/DTD/svg10.dtd">
<svg version="1.0" xmlns="http://www.w3.org/2000/svg"
 width="512.000000pt" height="512.000000pt" viewBox="0 0 512.000000 512.000000"
 preserveAspectRatio="xMidYMid meet">

<g transform="translate(0.000000,512.000000) scale(0.100000,-0.100000)"
fill="#000000" stroke="none">
<path d="M1675 5006 l-1570 -111 -3 -35 c-3 -37 294 -4270 300 -4275 2 -1 80
4 173 11 94 7 191 13 218 13 l47 1 0 -305 0 -305 1610 0 1610 0 0 175 c0 142
3 175 14 175 7 0 118 -11 246 -25 128 -14 235 -23 238 -21 7 8 467 4284 461
4289 -2 2 -371 43 -819 91 -448 48 -827 89 -841 92 -25 5 -27 8 -33 90 -3 46
-9 122 -12 169 l-7 85 -31 -1 c-17 -1 -737 -51 -1601 -113z m1355 -223 c0 -10
7 -101 15 -203 8 -102 15 -202 15 -222 l0 -38 -1110 0 -1110 0 -2 -1702 -3
-1703 -75 -5 c-41 -3 -77 -5 -79 -3 -6 4 -266 3702 -260 3706 3 3 2488 182
2582 186 19 1 27 -4 27 -16z m1006 -383 c356 -38 649 -72 652 -75 4 -4 -388
-3685 -393 -3693 -1 -1 -55 3 -119 10 l-116 12 0 1833 0 1833 -350 0 -350 0 0
59 c0 33 -3 66 -6 75 -4 11 0 16 14 16 12 0 312 -31 668 -70z m-276 -2240 l0
-1860 -1310 0 -1310 0 0 1860 0 1860 1310 0 1310 0 0 -1860z"/>
<path d="M1930 3554 c-121 -14 -223 -61 -308 -138 -105 -98 -159 -239 -148
-386 13 -174 99 -311 244 -388 85 -45 143 -61 247 -68 163 -11 298 33 402 130
l56 52 -97 87 c-53 48 -99 87 -102 87 -3 0 -26 -17 -52 -38 -62 -51 -92 -62
-160 -62 -112 1 -189 65 -212 177 -24 116 21 222 113 268 86 42 187 26 267
-43 l45 -39 95 84 c52 47 96 89 98 93 5 12 -99 100 -148 125 -92 47 -234 71
-340 59z"/>
<path d="M2420 3527 c0 -7 88 -219 195 -472 l194 -460 158 -3 158 -2 195 462
c107 254 196 467 198 475 3 10 -27 13 -151 13 l-154 0 -96 -227 c-52 -126
-103 -247 -112 -270 -10 -24 -21 -43 -25 -43 -4 0 -56 120 -116 268 l-110 267
-167 3 c-132 2 -167 0 -167 -11z"/>
<path d="M1470 2000 l0 -150 980 0 980 0 0 150 0 150 -980 0 -980 0 0 -150z"/>
<path d="M1470 1470 l0 -150 980 0 980 0 0 150 0 150 -980 0 -980 0 0 -150z"/>
<path d="M1470 930 l0 -150 978 2 977 3 3 148 3 147 -981 0 -980 0 0 -150z"/>
</g>
</svg>
