<?xml version="1.0" standalone="no"?>
<!DOCTYPE svg PUBLIC "-//W3C//DTD SVG 20010904//EN"
 "http://www.w3.org/TR/2001/REC-SVG-20010904/DTD/svg10.dtd">
<svg version="1.0" xmlns="http://www.w3.org/2000/svg"
 width="500.000000pt" height="500.000000pt" viewBox="0 0 500.000000 500.000000"
 preserveAspectRatio="xMidYMid meet">

<g transform="translate(0.000000,500.000000) scale(0.100000,-0.100000)"
fill="#000000" stroke="none">
<path d="M1170 3120 c0 -5 20 -19 44 -31 32 -14 48 -29 55 -51 7 -19 11 -121
11 -254 0 -217 1 -224 20 -224 19 0 20 8 22 192 l3 192 72 -190 71 -189 146
-3 c113 -2 146 0 146 10 0 7 -47 135 -104 283 l-103 270 -192 3 c-124 1 -191
-1 -191 -8z"/>
<path d="M2247 3058 c-29 -83 -161 -453 -173 -481 -6 -16 -2 -18 22 -15 27 3
31 11 100 203 l73 200 3 -200 3 -200 145 0 145 0 5 245 c3 135 9 251 14 259 5
7 24 19 42 27 67 28 38 34 -160 34 l-194 0 -25 -72z"/>
<path d="M2840 3121 c0 -5 18 -16 39 -25 64 -25 66 -33 69 -298 l4 -238 144 0
144 0 0 265 0 265 183 0 c159 0 186 -2 212 -19 21 -12 51 -56 99 -144 37 -70
72 -127 76 -127 9 0 3 289 -6 318 -3 9 -108 12 -484 12 -274 0 -480 -4 -480
-9z"/>
<path d="M3582 2615 c-12 -25 -22 -48 -22 -50 0 -3 14 -5 30 -5 29 0 30 1 30
50 0 28 -4 50 -8 50 -4 0 -18 -20 -30 -45z"/>
<path d="M1020 2398 c0 -4 12 -19 26 -35 l25 -28 19 25 18 24 5 -34 c3 -31 4
-30 5 10 l1 45 -24 -28 -25 -28 -25 28 c-13 15 -25 25 -25 21z"/>
<path d="M1282 2348 c-12 -28 -20 -53 -19 -55 4 -4 23 31 38 72 l11 30 10 -25
c19 -47 31 -70 35 -66 6 6 -36 96 -45 96 -4 0 -18 -23 -30 -52z"/>
<path d="M1501 2343 c1 -43 3 -52 9 -33 4 14 5 37 2 53 -4 25 -2 27 32 27 29
0 36 -4 36 -19 0 -10 -7 -22 -15 -25 -14 -5 -14 -9 1 -31 9 -14 19 -23 22 -21
3 3 -1 12 -7 20 -9 11 -9 19 0 34 20 32 5 52 -41 52 l-40 0 1 -57z"/>
<path d="M1733 2345 c0 -33 2 -45 4 -27 2 18 2 45 0 60 -2 15 -4 0 -4 -33z"/>
<path d="M1902 2348 c-12 -28 -20 -53 -18 -56 2 -2 7 6 11 17 3 12 11 18 17
15 6 -4 8 -2 4 4 -3 6 -1 23 5 39 l11 28 10 -25 c24 -58 38 -84 38 -73 0 19
-39 103 -48 103 -4 0 -18 -23 -30 -52z"/>
<path d="M2298 2393 c12 -2 30 -2 40 0 9 3 -1 5 -23 4 -22 0 -30 -2 -17 -4z"/>
<path d="M2490 2345 l0 -55 43 2 42 1 -37 4 c-30 3 -38 9 -38 24 0 15 7 19 33
20 l32 1 -30 7 c-16 3 -31 14 -33 23 -2 13 6 18 35 21 l38 4 -42 1 -43 2 0
-55z"/>
<path d="M2711 2343 c1 -43 3 -52 9 -33 4 14 5 37 2 53 -4 25 -2 27 32 27 29
0 36 -4 36 -19 0 -10 -7 -22 -15 -25 -14 -5 -14 -9 1 -31 9 -14 19 -23 22 -21
3 3 -1 12 -7 20 -9 11 -9 19 0 34 20 32 5 52 -41 52 l-40 0 1 -57z"/>
<path d="M2950 2396 c0 -2 9 -15 20 -28 10 -12 30 -36 44 -53 l25 -30 -1 60
c-2 57 -2 58 -5 12 l-4 -48 -35 45 c-32 42 -44 53 -44 42z"/>
<path d="M3201 2351 c-11 -27 -21 -53 -21 -58 0 -15 27 33 34 60 3 15 10 27
16 27 12 0 23 -37 14 -51 -4 -7 -3 -9 4 -5 6 3 14 -3 17 -15 4 -11 9 -18 12
-16 6 7 -38 107 -47 107 -4 0 -17 -22 -29 -49z"/>
<path d="M3422 2343 l1 -58 6 50 6 50 34 -47 c19 -27 38 -48 43 -48 4 0 7 26
6 58 l-1 57 -6 -50 -6 -50 -34 48 c-19 26 -38 47 -43 47 -4 0 -7 -26 -6 -57z"/>
<path d="M3660 2345 l0 -55 33 0 c54 0 82 44 57 91 -8 14 -21 19 -50 19 l-40
0 0 -55z m78 33 c7 -7 12 -21 12 -33 0 -29 -19 -45 -52 -45 -27 0 -28 2 -28
45 0 43 1 45 28 45 15 0 33 -5 40 -12z"/>
<path d="M3912 2348 c-12 -28 -20 -53 -19 -55 4 -4 23 31 38 72 l11 30 10 -25
c24 -58 38 -84 38 -73 0 19 -39 103 -48 103 -4 0 -18 -23 -30 -52z"/>
<path d="M2281 2360 c-1 -24 1 -26 37 -21 l37 6 -32 3 c-19 2 -33 10 -36 20
-3 11 -5 7 -6 -8z"/>
<path d="M1280 2053 c0 -148 -10 -178 -66 -205 -24 -12 -44 -26 -44 -30 0 -4
59 -8 130 -8 72 0 130 3 130 8 0 4 -19 16 -42 27 -60 28 -68 50 -68 193 0 115
-1 122 -20 122 -19 0 -20 -7 -20 -107z"/>
<path d="M1689 1985 l66 -176 49 3 49 3 62 173 63 172 -178 0 -178 0 67 -175z"/>
<path d="M2270 2032 c0 -143 -7 -164 -66 -188 -19 -8 -34 -19 -34 -24 0 -6 91
-10 245 -10 153 0 245 4 245 10 0 5 -17 18 -39 29 -21 11 -41 27 -45 36 -3 9
-6 75 -6 146 l0 129 -150 0 -150 0 0 -128z"/>
<path d="M2948 2032 c-4 -146 -14 -173 -73 -192 -19 -6 -35 -16 -35 -21 0 -5
112 -9 270 -9 158 0 270 4 270 9 0 5 -23 17 -50 26 -75 25 -84 45 -89 192 l-3
123 -143 0 -143 0 -4 -128z"/>
<path d="M2485 1337 c-30 -96 -55 -179 -55 -185 0 -6 6 -9 14 -6 11 4 126 331
126 358 0 3 -7 6 -15 6 -10 0 -31 -53 -70 -173z"/>
<path d="M1933 1358 c-76 -34 -113 -57 -113 -67 0 -11 39 -33 121 -69 66 -30
123 -52 125 -49 15 15 -19 39 -102 72 -52 21 -97 41 -99 45 -2 4 33 21 78 39
92 37 127 57 127 71 0 17 -22 10 -137 -42z"/>
<path d="M2930 1396 c0 -8 31 -27 73 -44 39 -17 88 -37 107 -45 l35 -14 -55
-25 c-30 -13 -77 -33 -103 -43 -44 -17 -67 -38 -55 -51 3 -2 60 19 127 48 84
36 121 57 121 69 0 11 -36 32 -117 68 -65 28 -121 51 -125 51 -5 0 -8 -6 -8
-14z"/>
</g>
</svg>
